<svg xmlns="http://www.w3.org/2000/svg" viewBox="0 0 800 512" height="512" width="800"><g><path d="M0 512h798V1.28H0z" fill="#3b91b5"/><path d="M393.51 149.744h71.454V42.687H393.51z" fill="#fff"/><path d="M393.51 149.744h71.454V42.687H393.51z" stroke="#fff" stroke-width="1.104565" stroke-miterlimit="10" fill="none"/><path d="M411.377 45.606h35.726v-14.11h-35.726z" fill="#fff"/><path d="M411.377 45.606h35.726v-14.11h-35.726z" stroke="#fff" stroke-width="1.104565" stroke-miterlimit="10" fill="none"/><path d="M402.914 165.414h52.65v-10.028h-52.65z" fill="#fff"/><path d="M402.914 165.414h52.65v-10.028h-52.65z" stroke="#fff" stroke-width="1.2535250000000002" stroke-miterlimit="10" fill="none"/><path d="M414.51 185.47h29.457v-20.056H414.51z" fill="#fff"/><path d="M414.51 185.47h29.457v-20.056H414.51z" stroke="#fff" stroke-width="1.2535250000000002" stroke-miterlimit="10" fill="none"/><path d="M376.635 289.067c-51.632-10.115-90.456-53.614-90.456-105.742 0-59.62 50.79-107.957 113.444-107.957 17.296 0 33.693 3.684 48.363 10.273" stroke="#fff" stroke-width="37.607479" stroke-miterlimit="10" fill="none"/><path d="M249.826 332.765l94.64-106.55h188.037v22.953l-156.374.27 59.32 83.327H249.826" fill="#fff"/><path d="M372.37 251.626h160.133V228.13H372.37z" fill="#fff"/><path d="M217.86 367.867h362.28v-42.622H217.86z" fill="#fff"/><path d="M217.86 367.867h362.28v-42.622H217.86z" stroke="#fff" stroke-width="1.2535250000000002" stroke-miterlimit="10" fill="none"/><path d="M360.28 278.238c0 10.115-8.2 18.318-18.318 18.318-10.118 0-18.32-8.203-18.32-18.318 0-10.12 8.202-18.325 18.32-18.325s18.32 8.204 18.32 18.325z" stroke="#3b91b5" stroke-width="10.585869" stroke-miterlimit="10" fill="none"/><text style="-inkscape-font-specification:Univers-Bold" transform="matrix(1.33 0 0 1.33 218.608 470.771)" font-weight="bold" font-size="73" font-family="Univers" fill="#fff"><tspan y="0" x="0 38.9814 75.262207 103.8779 140.1582 175.05179 198.63039 231.0425">Research</tspan></text><path d="M225.992 470.772h8.454v-28.37h7.965c7.678.29 11.176 3.692 13.12 12.727 1.844 8.16 3.303 13.796 4.37 15.642h8.745c-1.36-2.527-2.915-8.84-5.054-17.974-1.553-6.802-4.565-11.465-9.616-13.215v-.29c6.898-2.333 12.34-8.064 12.34-16.71 0-5.053-1.847-9.523-5.15-12.44-4.082-3.69-9.91-5.342-18.946-5.342-5.83 0-11.95.488-16.226 1.363zM3180.84 90.52c1.36-.39 4.276-.777 8.355-.777 8.94.097 15.06 3.79 15.06 12.242 0 7.48-5.73 12.436-14.766 12.436h-8.647zm136.003 536.646c.095-.875.29-2.234.29-3.984 0-8.647-4.08-22.153-19.432-22.153-13.7 0-22.052 11.174-22.052 25.36 0 14.185 8.647 23.707 23.124 23.707 7.48 0 12.63-1.557 15.64-2.916l-1.456-6.12c-3.206 1.36-6.898 2.427-13.02 2.427-8.548 0-15.934-4.76-16.127-16.32zm494.4-318.99c.68-5.925 4.466-13.892 13.114-13.892 9.62 0 11.95 8.45 11.852 13.892zm-174.615 78c3.305 1.942 8.065 3.205 13.215 3.205 11.172 0 17.585-5.83 17.585-14.09 0-6.995-4.176-11.074-12.34-14.183-6.12-2.334-8.937-4.08-8.937-7.967 0-3.498 2.817-6.413 7.87-6.413 4.37 0 7.772 1.554 9.62 2.72l2.135-6.218c-2.622-1.554-6.8-2.916-11.56-2.916-10.107 0-16.226 6.22-16.226 13.797 0 5.636 3.983 10.3 12.436 13.31 6.314 2.332 8.744 4.568 8.744 8.648 0 3.888-2.915 6.997-9.133 6.997-4.275 0-8.746-1.75-11.27-3.402zm340.5-239.9c.095-.873.29-2.233.29-3.982 0-8.647-4.082-22.153-19.432-22.153-13.7 0-22.054 11.174-22.054 25.36 0 14.184 8.647 23.706 23.123 23.706 7.48 0 12.63-1.555 15.642-2.914l-1.457-6.12c-3.207 1.36-6.9 2.427-13.02 2.427-8.55 0-15.934-4.76-16.13-16.322zm483.084 161.9c.68-5.925 4.467-13.892 13.115-13.892 9.62 0 11.95 8.45 11.852 13.892zm-137.5 80.233c-.583-3.207-.777-7.19-.777-11.27v-17.587c0-9.424-3.496-19.238-17.878-19.238-5.927 0-11.56 1.653-15.447 4.18l1.943 5.634c3.302-2.137 7.87-3.498 12.242-3.498 9.618 0 10.686 6.997 10.686 10.883v.97c-18.167-.097-28.274 6.123-28.274 17.49 0 6.8 4.86 13.504 14.382 13.504 6.703 0 11.756-3.3 14.378-6.994h.29l.683 5.927zm494.25-255.042c0 .876-.196 1.848-.487 2.72-1.36 3.985-5.247 7.87-11.367 7.87-4.372 0-8.063-2.622-8.063-8.16 0-9.134 10.59-10.784 19.917-10.59zm-37.272 150.753h8.45v-25.066c0-1.457.197-2.818.39-3.984 1.166-6.413 5.443-10.98 11.466-10.98 1.166 0 2.04.1 2.915.292v-8.063c-.777-.195-1.456-.293-2.43-.293-5.73 0-10.88 3.983-13.018 10.298h-.39l-.29-9.23h-7.48c.29 4.374.387 9.133.387 14.67zm204.44-143.076c-2.43 1.068-5.635 2.332-10.493 2.332-9.33 0-16.323-6.705-16.323-17.586 0-9.813 5.83-17.78 16.613-17.78 4.663 0 7.87 1.068 9.91 2.233l1.943-6.606c-2.332-1.165-6.802-2.428-11.853-2.428-15.352 0-25.26 10.492-25.26 24.97 0 14.38 9.228 23.998 23.414 23.998 6.316 0 11.27-1.556 13.506-2.722zm424.475 77.682h8.55v-28.372c0-1.652.096-2.913.583-4.08 1.555-4.664 5.927-8.55 11.463-8.55 8.065 0 10.884 6.413 10.884 13.992v27.01h8.55v-27.983c0-16.224-10.105-20.112-16.42-20.112-3.208 0-6.22.972-8.746 2.43-2.622 1.458-4.76 3.594-6.118 6.024h-.196v-29.343h-8.55z" stroke="#fff" stroke-width="1.33" stroke-miterlimit="10" fill="none"/></g></svg>