<svg xmlns="http://www.w3.org/2000/svg" viewBox="0 0 800 512" height="512" width="800"><g><path d="M0 512h798V1.28H0z" fill="#1f365f"/><text style="-inkscape-font-specification:Univers-Bold" transform="matrix(1.33 0 0 1.33 254.679 467.953)" font-weight="bold" font-size="73" font-family="Univers" fill="#fff"><tspan y="0" x="0 42.046909 58.982403 75.771996 115.99471 132.7843 165.19589 200.08949">Clinical</tspan></text><path d="M306.076 459.113c-3.4 1.65-8.648 2.72-13.798 2.72-15.932 0-25.163-10.3-25.163-26.33 0-17.198 10.2-27.01 25.552-27.01 5.44 0 10.008 1.165 13.214 2.72l2.04-6.898c-2.234-1.166-7.383-2.916-15.543-2.916-20.307 0-34.2 13.893-34.2 34.394 0 21.47 13.893 33.132 32.354 33.132 7.966 0 14.186-1.557 17.295-3.11zm2006.863-52.625h8.548v-68.98h-8.55zm106.813-75.308v-47.024h-8.55v47.024zm198.282-65.58c-3.11 0-5.342 2.33-5.342 5.34 0 2.917 2.136 5.25 5.148 5.25 3.402 0 5.538-2.333 5.442-5.25 0-3.01-2.04-5.34-5.247-5.34zm-9.81 624.254h8.55V861.58c0-1.455.196-2.914.584-3.982 1.456-4.76 5.83-8.745 11.462-8.745 8.066 0 10.884 6.315 10.884 13.894v27.107h8.55v-28.08c0-16.126-10.105-20.014-16.615-20.014-7.772 0-13.213 4.373-15.544 8.843h-.196l-.484-7.772h-7.578c.29 3.887.388 7.87.388 12.727zm179.75-558.674v-47.024h-8.55v47.024zm400.18-65.58c-3.11 0-5.342 2.33-5.342 5.34 0 2.917 2.136 5.25 5.15 5.25 3.4 0 5.535-2.333 5.44-5.25 0-3.01-2.04-5.34-5.248-5.34zm22.252 616.094c-2.43 1.068-5.634 2.33-10.492 2.33-9.328 0-16.322-6.703-16.322-17.584 0-9.813 5.83-17.78 16.613-17.78 4.663 0 7.87 1.068 9.91 2.234l1.943-6.607c-2.333-1.166-6.803-2.43-11.854-2.43-15.352 0-25.26 10.493-25.26 24.972 0 14.377 9.23 23.997 23.414 23.997 6.316 0 11.27-1.557 13.506-2.722zm371.56-480.994c-.583-3.207-.777-7.19-.777-11.27v-17.587c0-9.424-3.496-19.237-17.878-19.237-5.926 0-11.56 1.652-15.446 4.18l1.943 5.633c3.3-2.138 7.868-3.5 12.24-3.5 9.62 0 10.687 6.998 10.687 10.884v.97c-18.167-.097-28.273 6.123-28.273 17.49 0 6.8 4.858 13.504 14.38 13.504 6.704 0 11.757-3.302 14.38-6.995h.29l.682 5.927zm283.387-85.357c0 .875-.196 1.847-.487 2.72-1.36 3.984-5.247 7.87-11.367 7.87-4.372 0-8.063-2.623-8.063-8.16 0-9.134 10.59-10.784 19.917-10.59zm-37.272 150.752h8.55v-68.98h-8.55z" stroke="#fff" stroke-width="1.33" stroke-miterlimit="10" fill="none"/><path d="M442.794 38.48c5.385 3.256 7.3 8.238 6.69 14.216-.5 4.824 1.334 6.23 6.125 6.154 15.318-.283 30.615-.17 45.94-.095 16.66.103 27.255 10.73 27.36 27.384.056 9.962-.105 19.935.075 29.903.057 3.402-.97 5.026-4.525 4.62-1.2-.138-2.427-.02-3.645-.02-81.194 0-162.39-.083-243.577.16-6.713.02-8.72-1.724-8.297-8.388.59-9.19.018-18.465.188-27.696.274-14.852 11.082-25.758 25.86-25.928 15.793-.178 31.603-.216 47.4.05 4.753.083 6.627-1.284 6.15-6.13-.586-5.953 1.296-10.976 6.68-14.233h87.576" fill="#fff"/><path d="M289.53 355.248c-15.437-5.548-20.746-16.72-20.643-32.786.474-65.888.278-131.773.075-197.67-.017-5.887 1.267-7.786 7.505-7.77 81.69.225 163.387.225 245.083 0 6.238-.008 7.513 1.875 7.505 7.77-.204 65.897-.39 131.78.058 197.67.113 16.058-5.19 27.238-20.625 32.786h-218.96" fill="#fff" fill-rule="evenodd"/><path d="M396.933 81.024c-4.374-.007-8.746-.12-13.114.033-3.556.12-4.085-1.258-3.004-4.398 2.12-6.168 8.713-11.153 15.54-11.395 6.944-.245 13.944 4.74 16.403 11.19 1.45 3.815.153 4.74-3.437 4.602-4.125-.16-8.264-.033-12.39-.033" fill="#1f365f" fill-rule="evenodd"/><path d="M455.94 84.3c0 2.168-.075 4.35.027 6.518.083 2.434-.943 3.445-3.395 3.428-2.528-.034-3.412-1.268-3.404-3.582.025-4.1.025-8.202-.016-12.303-.03-2.74.537-4.764 3.963-4.584 3.453.194 2.723 2.704 2.817 4.726.085 1.925.017 3.864.01 5.797" fill="#1f365f" fill-rule="evenodd"/><path d="M348.836 85.372c-1.533 2.363 3.15 8.4-3.233 8.588-6.553.194-2.555-5.765-3.386-8.86-.607-2.247-.063-4.78-.13-7.2-.056-2.426.34-4.28 3.446-4.142 2.545.116 3.294 1.57 3.303 3.768.008 2.406 0 4.816 0 7.846" fill="#1f365f" fill-rule="evenodd"/><path d="M399.51 130.41c36.463 0 72.93.103 109.41-.12 5.25-.033 7.03 1.072 7.014 6.747-.213 62.972-.12 125.938-.145 188.905 0 11.172-4.81 16.135-15.915 16.135-67.334.05-134.685.058-202.028 0-10.695-.008-15.606-5.028-15.622-15.684-.034-63.205.054-126.422-.125-189.626-.018-5.18 1.496-6.494 6.545-6.47 36.962.208 73.91.113 110.864.113" fill="#1f365f" fill-rule="evenodd"/><path d="M333.637 162.515c0 4.305-3.427 7.803-7.674 7.803-4.24 0-7.678-3.498-7.678-7.803 0-4.306 3.44-7.804 7.678-7.804 4.247 0 7.674 3.5 7.674 7.805" fill="#fff"/><path d="M325.96 170.318l7.673 47.61" stroke="#fff" stroke-width="5.726714" stroke-linecap="round" stroke-miterlimit="10" fill="none"/><path d="M325.96 170.318l-7.667 47.61" stroke="#fff" stroke-width="5.726714" stroke-linecap="round" stroke-miterlimit="10" fill="none"/><path d="M313.528 183.995l12.186-10.32" stroke="#fff" stroke-width="5.726714" stroke-linecap="round" stroke-miterlimit="10" fill="none"/><path d="M338.714 184.116l-12.178-10.322" stroke="#fff" stroke-width="5.726714" stroke-linecap="round" stroke-miterlimit="10" fill="none"/><path d="M372.004 154.707h123.343" stroke="#fff" stroke-width="7.300902" stroke-linecap="round" stroke-miterlimit="10" fill="none"/><path d="M372.004 173.023h123.343" stroke="#fff" stroke-width="7.300902" stroke-linecap="round" stroke-miterlimit="10" fill="none"/><path d="M372.004 191.333h123.343" stroke="#fff" stroke-width="7.300902" stroke-linecap="round" stroke-miterlimit="10" fill="none"/><path d="M372.004 209.644h123.343" stroke="#fff" stroke-width="7.300902" stroke-linecap="round" stroke-miterlimit="10" fill="none"/><path d="M372.004 227.95h123.343" stroke="#fff" stroke-width="7.300902" stroke-linecap="round" stroke-miterlimit="10" fill="none"/><path d="M298.28 246.26h197.067" stroke="#fff" stroke-width="7.300902" stroke-linecap="round" stroke-miterlimit="10" fill="none"/><path d="M298.28 264.575h197.067" stroke="#fff" stroke-width="7.300902" stroke-linecap="round" stroke-miterlimit="10" fill="none"/><path d="M298.28 282.886h197.067" stroke="#fff" stroke-width="7.300902" stroke-linecap="round" stroke-miterlimit="10" fill="none"/><path d="M298.28 301.196h197.067" stroke="#fff" stroke-width="7.300902" stroke-linecap="round" stroke-miterlimit="10" fill="none"/><path d="M298.28 319.504h197.067" stroke="#fff" stroke-width="7.300902" stroke-linecap="round" stroke-miterlimit="10" fill="none"/></g></svg>