<?xml version="1.0" encoding="UTF-8" standalone="no"?>
<svg
   xmlns:dc="http://purl.org/dc/elements/1.1/"
   xmlns:cc="http://creativecommons.org/ns#"
   xmlns:rdf="http://www.w3.org/1999/02/22-rdf-syntax-ns#"
   xmlns:svg="http://www.w3.org/2000/svg"
   xmlns="http://www.w3.org/2000/svg"
   viewBox="0 0 800 512"
   height="512"
   width="800"
   xml:space="preserve"
   id="svg2"
   version="1.1"><metadata
     id="metadata8"><rdf:RDF><cc:Work
         rdf:about=""><dc:format>image/svg+xml</dc:format><dc:type
           rdf:resource="http://purl.org/dc/dcmitype/StillImage" /></cc:Work></rdf:RDF></metadata><defs
     id="defs6" /><g
     transform="matrix(1.3333333,0,0,-1.3333333,0,512)"
     id="g10"><g
       transform="scale(0.1)"
       id="g12"><path
         id="path14"
         style="fill:#1f365f;fill-opacity:1;fill-rule:nonzero;stroke:none"
         d="M 0,0 H 6000 V 3840 H 0 Z" /><g
         transform="scale(10)"
         id="g16"><text
           id="text20"
           style="font-variant:normal;font-weight:bold;font-size:73px;font-family:Univers;-inkscape-font-specification:Univers-Bold;writing-mode:lr-tb;fill:#ffffff;fill-opacity:1;fill-rule:nonzero;stroke:none"
           transform="matrix(1,0,0,-1,191.488,33.118)"><tspan
             id="tspan18"
             y="0"
             x="0 42.046909 58.982403 75.771996 115.99471 132.7843 165.19589 200.08949">Clinical</tspan></text>
</g><path
         id="path22"
         style="fill:none;stroke:#ffffff;stroke-width:10;stroke-linecap:butt;stroke-linejoin:miter;stroke-miterlimit:10;stroke-dasharray:none;stroke-opacity:1"
         d="m 2301.32,397.648 c -25.57,-12.406 -65.02,-20.453 -103.74,-20.453 -119.79,0 -189.2,77.438 -189.2,197.969 0,129.313 76.7,203.094 192.12,203.094 40.91,0 75.25,-8.766 99.36,-20.453 l 15.33,51.859 c -16.8,8.766 -55.51,21.922 -116.87,21.922 -152.68,0 -257.14,-104.469 -257.14,-258.609 0,-161.438 104.46,-249.11 243.26,-249.11 59.89,0 106.66,11.703 130.03,23.391 z m 87.36,-66.468 h 64.28 v 518.656 h -64.28 z m 233.63,0 v 353.562 h -64.28 V 331.18 Z m -32.14,493.093 c -23.38,0 -40.17,-17.531 -40.17,-40.171 0,-21.922 16.06,-39.454 38.71,-39.454 25.57,0 41.63,17.532 40.91,39.454 0,22.64 -15.34,40.171 -39.45,40.171 z M 2725.93,331.18 h 64.28 v 212.578 c 0,10.953 1.47,21.922 4.39,29.953 10.95,35.797 43.83,65.75 86.19,65.75 60.64,0 81.83,-47.484 81.83,-104.469 V 331.18 h 64.28 v 211.125 c 0,121.25 -75.97,150.484 -124.92,150.484 -58.44,0 -99.35,-32.875 -116.88,-66.484 h -1.47 l -3.64,58.437 h -56.98 c 2.19,-29.219 2.92,-59.172 2.92,-95.687 z m 466.5,0 v 353.562 h -64.28 V 331.18 Z m -32.14,493.093 c -23.38,0 -40.17,-17.531 -40.17,-40.171 0,-21.922 16.06,-39.454 38.72,-39.454 25.56,0 41.62,17.532 40.9,39.454 0,22.64 -15.34,40.171 -39.45,40.171 z m 376.82,-431.734 c -18.27,-8.031 -42.36,-17.531 -78.89,-17.531 -70.13,0 -122.72,50.406 -122.72,132.219 0,73.781 43.83,133.687 124.91,133.687 35.06,0 59.17,-8.031 74.51,-16.797 l 14.61,49.672 c -17.53,8.766 -51.14,18.266 -89.12,18.266 -115.43,0 -189.93,-78.891 -189.93,-187.75 0,-108.11 69.4,-180.438 176.05,-180.438 47.49,0 84.74,11.703 101.55,20.469 z m 337.28,-61.359 c -4.39,24.109 -5.85,54.062 -5.85,84.734 v 132.234 c 0,70.86 -26.29,144.641 -134.42,144.641 -44.56,0 -86.92,-12.422 -116.14,-31.422 l 14.61,-42.359 c 24.83,16.062 59.17,26.297 92.05,26.297 72.31,0 80.34,-52.61 80.34,-81.828 v -7.297 c -136.59,0.734 -212.58,-46.032 -212.58,-131.5 0,-51.125 36.53,-101.532 108.13,-101.532 50.4,0 88.39,24.829 108.11,52.594 h 2.18 l 5.13,-44.562 z m -67.94,119.078 c 0,-6.578 -1.47,-13.891 -3.66,-20.453 -10.22,-29.953 -39.45,-59.172 -85.47,-59.172 -32.87,0 -60.62,19.719 -60.62,61.359 0,68.672 79.62,81.078 149.75,79.625 z M 3969.1,331.18 h 64.28 v 518.656 h -64.28 z" /><path
         id="path24"
         style="fill:#ffffff;fill-opacity:1;fill-rule:nonzero;stroke:none"
         d="m 3329.28,3560.31 c 40.49,-24.49 54.89,-61.95 50.3,-106.9 -3.77,-36.27 10.03,-46.83 46.05,-46.27 115.18,2.13 230.2,1.28 345.42,0.72 125.26,-0.78 204.93,-80.69 205.71,-205.9 0.43,-74.91 -0.78,-149.89 0.57,-224.84 0.43,-25.58 -7.29,-37.79 -34.02,-34.73 -9.03,1.03 -18.25,0.15 -27.41,0.15 -610.48,0 -1220.97,0.62 -1831.4,-1.22 -50.48,-0.15 -65.57,12.97 -62.39,63.08 4.44,69.1 0.13,138.83 1.41,208.24 2.06,111.66 83.32,193.66 194.44,194.94 118.74,1.34 237.61,1.62 356.38,-0.38 35.74,-0.62 49.83,9.66 46.24,46.09 -4.4,44.76 9.75,82.53 50.24,107.02 h 658.46" /><path
         id="path26"
         style="fill:#ffffff;fill-opacity:1;fill-rule:evenodd;stroke:none"
         d="m 2176.91,1178.59 c -116.06,41.71 -155.98,125.71 -155.2,246.51 3.56,495.4 2.09,990.77 0.56,1486.23 -0.13,44.27 9.53,58.55 56.43,58.42 614.2,-1.68 1228.47,-1.68 1842.73,0 46.9,0.07 56.49,-14.09 56.43,-58.42 -1.54,-495.46 -2.94,-990.83 0.43,-1486.23 0.85,-120.74 -39.02,-204.8 -155.07,-246.51 H 2176.91" /><path
         id="path28"
         style="fill:#1f365f;fill-opacity:1;fill-rule:evenodd;stroke:none"
         d="m 2984.46,3240.42 c -32.89,0.05 -65.76,0.9 -98.6,-0.25 -26.73,-0.91 -30.71,9.46 -22.58,33.07 15.93,46.37 65.51,83.85 116.83,85.67 52.22,1.84 104.85,-35.65 123.34,-84.14 10.91,-28.68 1.16,-35.63 -25.83,-34.6 -31.02,1.21 -62.14,0.25 -93.16,0.25" /><path
         id="path30"
         style="fill:#1f365f;fill-opacity:1;fill-rule:evenodd;stroke:none"
         d="m 3428.13,3215.8 c 0,-16.31 -0.57,-32.71 0.19,-49.02 0.63,-18.3 -7.09,-25.9 -25.52,-25.77 -19.01,0.25 -25.66,9.53 -25.6,26.93 0.19,30.83 0.19,61.67 -0.12,92.5 -0.22,20.61 4.04,35.83 29.8,34.48 25.96,-1.46 20.47,-20.33 21.18,-35.54 0.64,-14.47 0.13,-29.05 0.07,-43.58" /><path
         id="path32"
         style="fill:#1f365f;fill-opacity:1;fill-rule:evenodd;stroke:none"
         d="m 2622.83,3207.73 c -11.53,-17.77 23.68,-63.16 -24.31,-64.57 -49.27,-1.46 -19.21,43.34 -25.46,66.61 -4.56,16.9 -0.47,35.95 -0.98,54.14 -0.42,18.24 2.57,32.18 25.91,31.14 19.14,-0.87 24.77,-11.81 24.84,-28.33 0.06,-18.09 0,-36.21 0,-58.99" /><path
         id="path34"
         style="fill:#1f365f;fill-opacity:1;fill-rule:evenodd;stroke:none"
         d="m 3003.83,2869.1 c 274.16,0 548.35,-0.78 822.64,0.9 39.48,0.25 52.85,-8.06 52.73,-50.73 -1.6,-473.47 -0.91,-946.9 -1.09,-1420.34 0,-84 -36.15,-121.31 -119.65,-121.31 -506.27,-0.37 -1012.67,-0.44 -1519.01,0 -80.41,0.06 -117.34,37.8 -117.46,117.92 -0.25,475.23 0.41,950.54 -0.94,1425.76 -0.13,38.95 11.25,48.83 49.21,48.64 277.91,-1.56 555.72,-0.84 833.57,-0.84" /><path
         id="path36"
         style="fill:#ffffff;fill-opacity:1;fill-rule:nonzero;stroke:none"
         d="m 2508.55,2627.71 c 0,-32.37 -25.77,-58.67 -57.7,-58.67 -31.87,0 -57.73,26.3 -57.73,58.67 0,32.37 25.86,58.67 57.73,58.67 31.93,0 57.7,-26.3 57.7,-58.67" /><path
         id="path38"
         style="fill:none;stroke:#ffffff;stroke-width:43.05789948;stroke-linecap:round;stroke-linejoin:miter;stroke-miterlimit:10;stroke-dasharray:none;stroke-opacity:1"
         d="m 2450.82,2569.04 57.7,-357.98" /><path
         id="path40"
         style="fill:none;stroke:#ffffff;stroke-width:43.05789948;stroke-linecap:round;stroke-linejoin:miter;stroke-miterlimit:10;stroke-dasharray:none;stroke-opacity:1"
         d="m 2450.82,2569.04 -57.64,-357.98" /><path
         id="path42"
         style="fill:none;stroke:#ffffff;stroke-width:43.05789948;stroke-linecap:round;stroke-linejoin:miter;stroke-miterlimit:10;stroke-dasharray:none;stroke-opacity:1"
         d="m 2357.35,2466.2 91.63,77.59" /><path
         id="path44"
         style="fill:none;stroke:#ffffff;stroke-width:43.05789948;stroke-linecap:round;stroke-linejoin:miter;stroke-miterlimit:10;stroke-dasharray:none;stroke-opacity:1"
         d="m 2546.72,2465.29 -91.56,77.61" /><path
         id="path46"
         style="fill:none;stroke:#ffffff;stroke-width:54.89410019;stroke-linecap:round;stroke-linejoin:miter;stroke-miterlimit:10;stroke-dasharray:none;stroke-opacity:1"
         d="m 2797.02,2686.41 h 927.39" /><path
         id="path48"
         style="fill:none;stroke:#ffffff;stroke-width:54.89410019;stroke-linecap:round;stroke-linejoin:miter;stroke-miterlimit:10;stroke-dasharray:none;stroke-opacity:1"
         d="m 2797.02,2548.7 h 927.39" /><path
         id="path50"
         style="fill:none;stroke:#ffffff;stroke-width:54.89410019;stroke-linecap:round;stroke-linejoin:miter;stroke-miterlimit:10;stroke-dasharray:none;stroke-opacity:1"
         d="m 2797.02,2411.03 h 927.39" /><path
         id="path52"
         style="fill:none;stroke:#ffffff;stroke-width:54.89410019;stroke-linecap:round;stroke-linejoin:miter;stroke-miterlimit:10;stroke-dasharray:none;stroke-opacity:1"
         d="m 2797.02,2273.35 h 927.39" /><path
         id="path54"
         style="fill:none;stroke:#ffffff;stroke-width:54.89410019;stroke-linecap:round;stroke-linejoin:miter;stroke-miterlimit:10;stroke-dasharray:none;stroke-opacity:1"
         d="m 2797.02,2135.71 h 927.39" /><path
         id="path56"
         style="fill:none;stroke:#ffffff;stroke-width:54.89410019;stroke-linecap:round;stroke-linejoin:miter;stroke-miterlimit:10;stroke-dasharray:none;stroke-opacity:1"
         d="M 2242.7,1998.04 H 3724.41" /><path
         id="path58"
         style="fill:none;stroke:#ffffff;stroke-width:54.89410019;stroke-linecap:round;stroke-linejoin:miter;stroke-miterlimit:10;stroke-dasharray:none;stroke-opacity:1"
         d="M 2242.7,1860.34 H 3724.41" /><path
         id="path60"
         style="fill:none;stroke:#ffffff;stroke-width:54.89410019;stroke-linecap:round;stroke-linejoin:miter;stroke-miterlimit:10;stroke-dasharray:none;stroke-opacity:1"
         d="M 2242.7,1722.66 H 3724.41" /><path
         id="path62"
         style="fill:none;stroke:#ffffff;stroke-width:54.89410019;stroke-linecap:round;stroke-linejoin:miter;stroke-miterlimit:10;stroke-dasharray:none;stroke-opacity:1"
         d="M 2242.7,1584.99 H 3724.41" /><path
         id="path64"
         style="fill:none;stroke:#ffffff;stroke-width:54.89410019;stroke-linecap:round;stroke-linejoin:miter;stroke-miterlimit:10;stroke-dasharray:none;stroke-opacity:1"
         d="M 2242.7,1447.34 H 3724.41" /></g></g></svg>