<?xml version="1.0" encoding="UTF-8" standalone="no"?>
<svg
   xmlns:dc="http://purl.org/dc/elements/1.1/"
   xmlns:cc="http://creativecommons.org/ns#"
   xmlns:rdf="http://www.w3.org/1999/02/22-rdf-syntax-ns#"
   xmlns:svg="http://www.w3.org/2000/svg"
   xmlns="http://www.w3.org/2000/svg"
   viewBox="0 0 800 512"
   height="512"
   width="800"
   xml:space="preserve"
   id="svg2"
   version="1.1"><metadata
     id="metadata8"><rdf:RDF><cc:Work
         rdf:about=""><dc:format>image/svg+xml</dc:format><dc:type
           rdf:resource="http://purl.org/dc/dcmitype/StillImage" /></cc:Work></rdf:RDF></metadata><defs
     id="defs6" /><g
     transform="matrix(1.3333333,0,0,-1.3333333,0,512)"
     id="g10"><g
       transform="scale(0.1)"
       id="g12"><path
         id="path14"
         style="fill:#3b91b5;fill-opacity:1;fill-rule:nonzero;stroke:none"
         d="M 0,0 H 6000 V 3840 H 0 Z" /><path
         id="path16"
         style="fill:#ffffff;fill-opacity:1;fill-rule:nonzero;stroke:none"
         d="m 2958.73,2723.73 h 537.238 v 804.941 H 2958.73 Z" /><path
         id="path18"
         style="fill:none;stroke:#ffffff;stroke-width:8.30500984;stroke-linecap:butt;stroke-linejoin:miter;stroke-miterlimit:10;stroke-dasharray:none;stroke-opacity:1"
         d="m 2958.73,2723.73 h 537.238 v 804.941 H 2958.73 Z" /><path
         id="path20"
         style="fill:#ffffff;fill-opacity:1;fill-rule:nonzero;stroke:none"
         d="m 3093.06,3506.72 h 268.613 v 106.102 H 3093.06 Z" /><path
         id="path22"
         style="fill:none;stroke:#ffffff;stroke-width:8.30500984;stroke-linecap:butt;stroke-linejoin:miter;stroke-miterlimit:10;stroke-dasharray:none;stroke-opacity:1"
         d="m 3093.06,3506.72 h 268.613 v 106.102 H 3093.06 Z" /><path
         id="path24"
         style="fill:#ffffff;fill-opacity:1;fill-rule:nonzero;stroke:none"
         d="m 3029.43,2605.91 h 395.859 v 75.3984 H 3029.43 Z" /><path
         id="path26"
         style="fill:none;stroke:#ffffff;stroke-width:9.42541981;stroke-linecap:butt;stroke-linejoin:miter;stroke-miterlimit:10;stroke-dasharray:none;stroke-opacity:1"
         d="m 3029.43,2605.91 h 395.859 v 75.3984 H 3029.43 Z" /><path
         id="path28"
         style="fill:#ffffff;fill-opacity:1;fill-rule:nonzero;stroke:none"
         d="m 3116.62,2455.11 h 221.48 v 150.801 h -221.48 z" /><path
         id="path30"
         style="fill:none;stroke:#ffffff;stroke-width:9.42541981;stroke-linecap:butt;stroke-linejoin:miter;stroke-miterlimit:10;stroke-dasharray:none;stroke-opacity:1"
         d="m 3116.62,2455.11 h 221.48 v 150.801 h -221.48 z" /><path
         id="path32"
         style="fill:none;stroke:#ffffff;stroke-width:282.76300049;stroke-linecap:butt;stroke-linejoin:miter;stroke-miterlimit:10;stroke-dasharray:none;stroke-opacity:1"
         d="m 2831.84,1676.19 c -388.21,76.05 -680.12,403.11 -680.12,795.05 0,448.28 381.88,811.71 852.97,811.71 130.05,0 253.33,-27.7 363.63,-77.24" /><path
         id="path34"
         style="fill:#ffffff;fill-opacity:1;fill-rule:nonzero;stroke:none"
         d="m 1878.39,1347.63 711.58,801.14 h 1413.81 v -172.59 l -1175.74,-2.04 446.02,-626.51 H 1878.39" /><path
         id="path36"
         style="fill:#ffffff;fill-opacity:1;fill-rule:nonzero;stroke:none"
         d="m 2799.78,1957.7 h 1204 v 176.66 h -1204 z" /><path
         id="path38"
         style="fill:#ffffff;fill-opacity:1;fill-rule:nonzero;stroke:none"
         d="m 1638.04,1083.71 h 2723.91 v 320.461 H 1638.04 Z" /><path
         id="path40"
         style="fill:none;stroke:#ffffff;stroke-width:9.42541981;stroke-linecap:butt;stroke-linejoin:miter;stroke-miterlimit:10;stroke-dasharray:none;stroke-opacity:1"
         d="m 1638.04,1083.71 h 2723.91 v 320.461 H 1638.04 Z" /><path
         id="path42"
         style="fill:none;stroke:#3b91b5;stroke-width:79.59320068;stroke-linecap:butt;stroke-linejoin:miter;stroke-miterlimit:10;stroke-dasharray:none;stroke-opacity:1"
         d="m 2708.88,1757.61 c 0,-76.05 -61.66,-137.73 -137.74,-137.73 -76.07,0 -137.74,61.68 -137.74,137.73 0,76.1 61.67,137.78 137.74,137.78 76.08,0 137.74,-61.68 137.74,-137.78 z" /><g
         transform="scale(10)"
         id="g44"><text
           id="text48"
           style="font-variant:normal;font-weight:bold;font-size:73px;font-family:Univers;-inkscape-font-specification:Univers-Bold;writing-mode:lr-tb;fill:#ffffff;fill-opacity:1;fill-rule:nonzero;stroke:none"
           transform="matrix(1,0,0,-1,164.367,30.9988)"><tspan
             id="tspan46"
             y="0"
             x="0 38.9814 75.262207 103.8779 140.1582 175.05179 198.63039 231.0425">Research</tspan></text>
</g><path
         id="path50"
         style="fill:none;stroke:#ffffff;stroke-width:10;stroke-linecap:butt;stroke-linejoin:miter;stroke-miterlimit:10;stroke-dasharray:none;stroke-opacity:1"
         d="m 1699.19,309.988 h 63.56 v 213.313 h 59.89 c 57.72,-2.188 84.02,-27.766 98.63,-95.703 13.87,-61.36 24.84,-103.735 32.87,-117.61 h 65.75 c -10.23,19 -21.92,66.469 -38,135.141 -11.69,51.141 -34.33,86.203 -72.31,99.359 v 2.188 c 51.86,17.531 92.78,60.625 92.78,125.64 0,37.985 -13.89,71.594 -38.72,93.516 -30.69,27.75 -74.52,40.172 -142.45,40.172 -43.83,0 -89.86,-3.656 -122,-10.234 z m 63.56,441.235 c 10.22,2.922 32.14,5.843 62.81,5.843 67.22,-0.734 113.24,-28.5 113.24,-92.046 0,-56.25 -43.1,-93.516 -111.03,-93.516 h -65.02 z m 608.23,-276.141 c 0.72,6.578 2.19,16.797 2.19,29.953 0,65.016 -30.69,166.563 -146.11,166.563 -103,0 -165.81,-84.016 -165.81,-190.672 0,-106.656 65.01,-178.25 173.86,-178.25 56.25,0 94.96,11.703 117.6,21.922 l -10.95,46.015 c -24.11,-10.218 -51.87,-18.25 -97.89,-18.25 -64.28,0 -119.81,35.797 -121.26,122.719 z m -247.64,46.031 c 5.11,44.547 33.59,104.453 98.61,104.453 72.33,0 89.86,-63.546 89.12,-104.453 z m 301.43,-194.328 c 24.85,-14.609 60.64,-24.109 99.36,-24.109 84,0 132.22,43.844 132.22,105.937 0,52.594 -31.4,83.266 -92.78,106.641 -46.02,17.547 -67.2,30.687 -67.2,59.906 0,26.297 21.18,48.219 59.17,48.219 32.87,0 58.44,-11.688 72.33,-20.453 l 16.06,46.75 c -19.72,11.687 -51.14,21.922 -86.92,21.922 -75.99,0 -122,-46.766 -122,-103.735 0,-42.375 29.95,-77.437 93.5,-100.078 47.48,-17.531 65.75,-34.344 65.75,-65.015 0,-29.235 -21.92,-52.61 -68.67,-52.61 -32.14,0 -65.75,13.156 -84.74,25.578 z m 595.18,148.297 c 0.72,6.578 2.19,16.797 2.19,29.953 0,65.016 -30.69,166.563 -146.11,166.563 -103,0 -165.82,-84.016 -165.82,-190.672 0,-106.656 65.02,-178.25 173.86,-178.25 56.25,0 94.97,11.703 117.61,21.922 l -10.95,46.015 c -24.11,-10.218 -51.87,-18.25 -97.89,-18.25 -64.28,0 -119.81,35.797 -121.27,122.719 z m -247.64,46.031 c 5.11,44.547 33.59,104.453 98.61,104.453 72.33,0 89.86,-63.546 89.12,-104.453 z M 3352.8,309.988 c -4.39,24.11 -5.85,54.063 -5.85,84.735 v 132.234 c 0,70.859 -26.29,144.641 -134.42,144.641 -44.56,0 -86.92,-12.422 -116.14,-31.422 l 14.61,-42.36 c 24.83,16.063 59.17,26.297 92.05,26.297 72.31,0 80.34,-52.609 80.34,-81.828 v -7.297 c -136.59,0.735 -212.58,-46.031 -212.58,-131.5 0,-51.125 36.53,-101.531 108.13,-101.531 50.4,0 88.39,24.828 108.11,52.594 h 2.18 l 5.13,-44.563 z m -67.94,119.078 c 0,-6.578 -1.47,-13.89 -3.66,-20.453 -10.22,-29.953 -39.45,-59.172 -85.47,-59.172 -32.87,0 -60.62,19.719 -60.62,61.36 0,68.672 79.62,81.078 149.75,79.625 z m 162.65,-119.078 h 63.54 v 188.469 c 0,10.953 1.47,21.188 2.93,29.953 8.76,48.219 40.92,82.547 86.2,82.547 8.77,0 15.34,-0.734 21.92,-2.187 v 60.625 c -5.84,1.468 -10.95,2.203 -18.26,2.203 -43.1,0 -81.82,-29.953 -97.89,-77.438 h -2.93 l -2.18,69.391 h -56.25 c 2.18,-32.875 2.92,-68.656 2.92,-110.297 z m 476.85,61.36 c -18.27,-8.032 -42.36,-17.532 -78.89,-17.532 -70.13,0 -122.72,50.407 -122.72,132.219 0,73.781 43.83,133.688 124.91,133.688 35.06,0 59.17,-8.032 74.51,-16.797 l 14.61,49.672 c -17.53,8.765 -51.14,18.265 -89.12,18.265 -115.43,0 -189.93,-78.89 -189.93,-187.75 0,-108.109 69.39,-180.437 176.05,-180.437 47.49,0 84.74,11.703 101.55,20.469 z m 83.06,-61.36 h 64.28 v 213.313 c 0,12.422 0.73,21.906 4.39,30.672 11.69,35.078 44.56,64.297 86.19,64.297 60.64,0 81.83,-48.219 81.83,-105.204 V 309.988 h 64.28 v 210.391 c 0,121.984 -75.97,151.219 -123.46,151.219 -24.11,0 -46.75,-7.313 -65.75,-18.266 -19.72,-10.969 -35.79,-27.031 -46.01,-45.297 h -1.47 v 220.61 h -64.28 z" /></g></g></svg>